<!-- by TradingView --><svg width="56" height="56" xmlns="http://www.w3.org/2000/svg"><path fill="#FFED00" d="M0 0h56v56H0z"/><path d="M12 22.667L28.004 12 44 22.667l-18.996 12.66-3.34-2.22 15.34-10.213-9.332-6.225-4.338 2.885 3.332 2.221-8.002 5.333L12 22.667z" fill="#0058A6"/><path d="M44 33.334L27.996 43.992 12 33.334l19.004-12.661 3.332 2.22-15.34 10.213 9.34 6.225 4.33-2.893-3.332-2.221 8.002-5.325L44 33.334zm0-16.884l-3.332 2.22-3.332-2.22L44 12v4.45zm-32 23.1l3.332-2.22 3.332 2.22L12 44v-4.45z" fill="#0058A6"/></svg>