<!-- by TradingView --><svg width="56" height="56" xmlns="http://www.w3.org/2000/svg"><path fill="#004A8F" d="M0 0h56v56H0z"/><path d="M27 39h-4v-2c-1.445 1.335-3.362 2.56-6.164 2.56-7.502 0-11.262-6.147-11.262-11.447 0-5.296 3.722-11.46 11.147-11.46 7.427 0 10.238 6.639 10.238 6.639l-3.363 2.014s-2.315-4.39-6.798-4.39c-4.483 0-7.085 3.875-7.085 7.197 0 3.325 2.642 7.162 7.161 7.162 3.132 0 5.327-2.105 6.126-3.275h-6v-4h10v11zM29 28h10v4h-6c.782 1.174 2.855 3.264 5.924 3.264 4.43 0 7.019-3.853 7.019-7.19 0-3.336-2.552-7.227-6.944-7.227-4.393 0-6.663 4.407-6.663 4.407l-3.295-2.021s2.754-6.667 10.033-6.667C46.35 16.566 50 22.755 50 28.074c0 5.32-3.686 11.492-11.038 11.492-2.748 0-4.545-1.225-5.962-2.566v2l-4 .004V28z" fill="#fff"/></svg>