<!-- by TradingView --><svg width="56" height="56" xmlns="http://www.w3.org/2000/svg"><path fill="#00488E" d="M0 0h56v56H0z"/><path d="M14.022 32.084L14 31.256v-6.629c1.005-.019 1.76-.244 2.41.82.178.302.312.632.41.95h.392L17.004 24H9.006l-.203 2.396h.392c.1-.316.233-.647.406-.949.654-1.064 1.398-.839 2.399-.82v6.629l-.038.828c-.209.47-.446.566-.962.537V33h4v-.379c-.52.03-.775-.067-.978-.537zM4 24v.384h.057c.156 0 .388.057.566.158.374.162.365.833.365 1.12l.01 2.829-.01 2.832c0 .291.01.963-.365 1.121-.178.1-.41.158-.566.158H4V33h4v-.398h-.045c-.16 0-.397-.058-.57-.158-.38-.158-.37-.83-.37-1.121l-.01-2.832.01-2.828c0-.288-.01-.959.37-1.121.173-.101.41-.158.57-.158H8V24H4zM33.395 22.034c.228-.178.178-.679-.07-.876-.172-.111-.415-.232-.737-.101-.897.741-1.526 1.416-2.284 2.234.729-.245 1.952-.679 2.835-1.07.093-.018.207-.13.256-.187zM32 24.419l.434.066c.324.077.473.341.535.638L33 28.992c0 1.222.12 2.5-.97 3.103-.69.34-1.691.325-2.275-.051-.526-.293-.755-.869-.755-1.385v-5.53c.042-.33.151-.57.37-.638.203-.129.33-.066.63-.066v-.398l-4-.01v.398l.406.066c.277.11.551.36.594.648v5.61c0 .66.421 1.31.99 1.755 1.208.806 3.4.972 4.71.134 1.396-.743 1.3-2.1 1.3-3.604v-3.901s.007-.35.492-.638c.276-.066.23-.066.508-.066v-.415h-3v.415zM25.453 32.027L21.94 24h-.595l-3.24 7.634a1.877 1.877 0 01-1.313.987V33h3.092v-.379c-.213.03-.436-.01-.777-.158-.506-.661.021-1.216.244-1.81h3.488c.208.583.746 1.097.364 1.715-.222.244-.544.215-.857.253V33h4.118l.03-.379c-.407-.067-.828-.225-1.04-.594zm-5.729-2.021l1.33-3.533h.069c.456 1.102.96 2.43 1.396 3.533h-2.795zM50.993 32.027L47.479 24h-.594l-3.24 7.634a1.877 1.877 0 01-1.313.987V33h3.092v-.379c-.214.03-.437-.01-.778-.158-.505-.661.022-1.216.245-1.81h3.487c.208.583.747 1.097.365 1.715-.223.244-.544.215-.857.253V33h4.117l.03-.379c-.407-.067-.828-.225-1.04-.594zm-5.73-2.021l1.33-3.533h.07c.455 1.102.96 2.43 1.395 3.533h-2.794zM40.608 28.064c-1.04-.733-2.293-.93-3.037-2.07-.128-.384-.118-.858.16-1.155.415-.341.91-.605 1.545-.446 1.144.215 1.947 1.26 2.24 2.3H42v-2.707h-.494c-.224.095-.264.484-.674.335-.759-.288-1.54-.594-2.433-.556-1.051.072-2.12.628-2.472 1.673-.203.709-.08 1.495.386 2.06 1.303 1.386 3.38 1.582 4.271 3.326.29.666-.303 1.695-1.14 1.778-1.209.058-1.885-.651-2.594-1.64-.169-.215-.392-.848-.392-.848H36v2.866h.458c.214-.426.506-.455.7-.378 1.16.498 2.32.877 3.58.292.792-.379 1.515-1.174 1.585-2.037.11-1.173-.763-2.156-1.715-2.793z" fill="#fff"/></svg>