<!-- by TradingView --><svg xmlns="http://www.w3.org/2000/svg" width="56" height="56"><path fill="url(#a1ojdbmnl)" d="M0 0h56v56H0z"/><path d="M46.8 26.3c-1.7.66-6.96 1.78-14.47.92l-8.9-1.16L38.11 15h5.39l-11.17 8.42c2.9.43 10.08.77 15.67-1.28l-1.2 4.16zM34.37 15h-5.32l-8.98 6.82c-1.93.03-6.46.33-9.13 1.3l-1.11 3.97c1.06-.5 4.64-1.5 10.53-1.39l14-10.7zM21.44 41h5.32l8.98-6.83c1.93-.02 6.46-.32 9.13-1.29l1.1-3.97c-1.05.5-4.63 1.5-10.52 1.39l-14 10.7zm2.23-12.22c-7.51-.87-12.77.25-14.46.92L8 33.86c5.59-2.05 12.78-1.71 15.67-1.28L12.5 41h5.39l14.68-11.07-8.9-1.15z" fill="#fff"/><defs><linearGradient id="a1ojdbmnl" x1="28" y1="0" x2="28" y2="56" gradientUnits="userSpaceOnUse"><stop stop-color="#0DD1EE"/><stop offset="1" stop-color="#386EF0"/></linearGradient></defs></svg>