<!-- by TradingView --><svg width="56" height="56" xmlns="http://www.w3.org/2000/svg"><path fill="url(#paint0_linear)" d="M0 0h56v56H0z"/><path d="M56 21.999V18H0v3.999h15.298L10.782 38h9.076c4.344.175 7.687-3.006 6.6-6.745-.303-1.046-1.302-1.656-1.39-1.656 1.173-.61 1.868-1.875 1.998-2.05.435-.958.826-2.658-.347-4.053-.912-1.177-2.736-1.497-4.039-1.497h9.64L27.849 38h4.473l1.733-7.005h2.605c1.824 0 1.654 1.742 1.698 2.222l.13 4.783h4.125s-.13-5.306-.13-5.655c-.043-1.22-.868-1.787-1.563-1.787 1.303-.393 2.475-1.57 2.91-2.354.564-.916.998-2.354.434-3.75-.739-2.092-2.78-2.455-4.126-2.455H56zm-20.188 2.993h3.121c1.52 0 1.769 1.163 1.769 1.468 0 .741-.608 2.036-2.519 2.036h-3.3s.886-3.46.93-3.504zm-18.646 6.003h2.996c1.575 0 2.141 1.26 1.675 2.664C21.75 33.92 21.42 35 19.51 35h-3.483l1.138-4.005zm1.65-5.997h3.474c.651 0 1.288.511 1.288 1.514 0 1.003-1.031 1.984-2.117 1.984H17.77l1.046-3.498z" fill="#fff"/><defs><linearGradient id="paint0_linear" x1="28" y1="0" x2="28" y2="56" gradientUnits="userSpaceOnUse"><stop offset=".375" stop-color="#FDC82F"/><stop offset=".38" stop-color="#008542"/></linearGradient></defs></svg>