<!-- by TradingView --><svg width="56" height="56" xmlns="http://www.w3.org/2000/svg"><path fill="#FFF22D" d="M0 0h56v56H0z"/><path d="M12 39.555l3.788-2.221 3.28 2.22L12 44v-4.445zm31.999-23.108l-3.28 2.221-3.28-2.221L43.998 12v4.447zm0 16.885L28.253 44 12.508 33.332l18.698-12.665 3.28 2.223-15.089 10.222 9.185 6.222 4.263-2.889-3.28-2.223 7.873-5.335 6.56 4.445zM12.508 22.67l15.747-10.665L44 22.67 25.302 35.334l-3.28-2.222L29.565 28l7.545-5.111-9.185-6.221-4.264 2.889 3.28 2.221-7.874 5.335-6.56-4.445z" fill="#2360A5"/></svg>