<!-- by TradingView --><svg width="56" height="56" xmlns="http://www.w3.org/2000/svg"><path fill="#033678" d="M0 0h56v56H0z"/><path d="M43.164 16.516h.658c.521 0 .782-.255.782-.766a.655.655 0 00-.186-.484c-.124-.127-.3-.19-.526-.19a.765.765 0 00-.484.161.494.494 0 00-.203.402h-1.394c0-.318.088-.6.265-.849.176-.248.42-.441.732-.579A2.52 2.52 0 0143.843 14c.67 0 1.197.153 1.58.46.384.305.576.726.576 1.261 0 .26-.08.505-.24.737a1.688 1.688 0 01-.691.559c.32.115.57.292.753.53.182.234.273.525.273.872 0 .538-.207.969-.62 1.291-.415.323-.958.485-1.631.485-.395 0-.762-.075-1.101-.224a1.741 1.741 0 01-.765-.625 1.634 1.634 0 01-.261-.91h1.403c0 .185.074.345.223.48a.79.79 0 00.55.203c.246 0 .442-.068.588-.203a.691.691 0 00.22-.526c0-.303-.077-.518-.228-.645-.152-.127-.362-.19-.63-.19h-.678v-1.04z" fill="#fff"/><path fill-rule="evenodd" d="M29.81 21H21v16h9.112c2.507 0 4.54-2.05 4.54-4.654a4.759 4.759 0 00-2.035-3.933 4.464 4.464 0 001.43-3.296c0-2.43-1.897-4.117-4.238-4.117zM25 24.027h3.599c2.399 0 2.266 3.349 0 3.349H25v-3.35zm3.599 6.375H25V34h3.599c1.003 0 1.816-.779 1.816-1.782a1.816 1.816 0 00-1.816-1.816z" fill="#fff"/><path d="M14 16h6v2h-4v22h4v2h-6V16zm26 0h-6v2h4v22h-4v2h6V16z" fill="#fff"/></svg>