<!-- by TradingView --><svg xmlns="http://www.w3.org/2000/svg" width="56" height="56"><path fill="#F0F3FA" d="M0 0h56v56H0z"/><path fill-rule="evenodd" d="M7 31.15v-7.93c.82-.4 1.73-.17 2 0V25h2.55v1H10.3c-.86-.02-1.17.3-1.3.44l-.01.01v4.35c.03 2.26 1.93 2.4 3 2.04v.93c-.41.18-1.27.23-1.64.23C7.52 34 7 32.18 7 31.15zM16.17 25a14.9 14.9 0 00-3.35.35v1.12a7.5 7.5 0 012.64-.47c2.12 0 2.52 1.1 2.54 1.77v.72l-2.82.26c-2.63.2-3.16 1.87-3.18 2.68-.07 2.94 3.57 2.77 5.4 2.31v-.97c-2.75.78-3.38-.63-3.4-1.43-.02-1.9 2.19-2.08 3.68-2.2.1-.02.22-.02.32-.03v4.67c.77.39 1.7.16 2 0v-5.92c.03-2.21-1.92-2.84-3.83-2.86zm22.65.35a14.9 14.9 0 013.35-.35c1.9.02 3.86.65 3.83 2.86v5.92c-.3.16-1.23.39-2 0V29.1l-.32.02c-1.5.13-3.7.3-3.68 2.21.02.8.65 2.21 3.4 1.43v.97c-1.83.46-5.47.63-5.4-2.3.02-.82.55-2.49 3.18-2.69L44 28.5v-.72c-.02-.68-.42-1.77-2.54-1.77a7.5 7.5 0 00-2.64.47v-1.12zm-9.51 8.07c-.32.19-1.48.58-3.15.58-2.13 0-5.18-.6-5.16-4.7.02-4.1 3.44-4.3 4.61-4.3.55 0 4.07 0 3.88 4.52H23c-.07 1.15.29 3.44 3.16 3.48a7.33 7.33 0 003.15-.78v1.2zm-6.3-4.56c-.07-.94.3-2.86 2.34-2.86s2.24 1.85 2.12 2.86h-4.46zm13.55-3.31A6.71 6.71 0 0033.9 25c-1.62-.02-3.9.7-3.9 2.76 0 1.65 1.88 2.26 2.87 2.36.74.1 2.11.54 2.13 1.5.02 1.2-1.2 1.4-1.86 1.38h-.25c-.63 0-1.45-.01-2.89-.8v1.23c.48.2 1.8.59 3.14.57 1.68-.02 3.86-.74 3.86-2.7 0-1.82-1.78-2.2-2.87-2.44l-.23-.04-.06-.02c-1-.22-1.82-.4-1.84-1.38-.02-.99.85-1.36 1.9-1.42.85-.05 2.13.4 2.66.67v-1.12z" fill="#03286A"/><path d="M50.89 18.8a.5.5 0 01-.08.7l-5.71 4.53a.5.5 0 11-.62-.78l5.7-4.53a.5.5 0 01.7.08z" fill="#1D9721"/><path d="M40.82 22.5c0-.28.23-.5.5-.5h7.4a.5.5 0 010 1h-7.4a.5.5 0 01-.5-.5z" fill="#F59900"/><path d="M39.45 17.2a.5.5 0 01.7-.09l7.98 6.21a.5.5 0 11-.62.79l-7.97-6.21a.5.5 0 01-.09-.7z" fill="#03286A"/><path d="M45.42 19.73a.5.5 0 01.62.35L47.9 27a.5.5 0 01-.97.26l-1.86-6.92a.5.5 0 01.35-.61z" fill="#EA5700"/></svg>