<!-- by TradingView --><svg xmlns="http://www.w3.org/2000/svg" width="56" height="56"><path fill="#004394" d="M0 0h56v56H0z"/><path d="M46 32.5v-7.98c0-.28.22-.5.5-.5h2.02c.26 0 .48.21.48.48 0 .23.09.3.2.31.17.01.31-.1.45-.18 1.06-.67 1.78-.7 2.15-.58.14.05.2.2.2.34v2.3c-1.99-.4-2.78.17-3 .5v5.31a.5.5 0 01-.5.5h-2a.5.5 0 01-.5-.5z" fill="#fff"/><rect x="15.44" y="20" width="3" height="13" rx=".5" fill="#fff"/><path d="M4.02 32.35l3.77-12a.5.5 0 01.47-.35h2.46a.5.5 0 01.48.35l3.78 12a.5.5 0 01-.48.65h-1.99a.53.53 0 01-.5-.39c-.33-1.08-1.16-2.7-2.53-2.7-1.37-.02-2.2 1.61-2.54 2.7a.53.53 0 01-.5.39H4.5a.5.5 0 01-.48-.65zm5.66-7.6a.2.2 0 00-.39 0L8.28 28.1a.2.2 0 00.19.25h2.03a.2.2 0 00.2-.25l-1.02-3.34zM21.5 24h-2a.5.5 0 00-.5.5v5.65c.18 2.46 1.97 2.87 2.68 2.85a4.07 4.07 0 001.99-.64c.33-.21.54-.17.64-.09.06.05.07.13.07.2V33h2.12a.5.5 0 00.5-.5v-8a.5.5 0 00-.5-.5h-2a.5.5 0 00-.5.5v5.65c-.3.45-.58.56-.88.56-1.1.05-1.1-.72-1.12-1.12V24.5a.5.5 0 00-.5-.5z" fill="#fff"/><path fill-rule="evenodd" d="M28.5 24H31v.64c.07.11.14.25.66-.02A4.73 4.73 0 0133.8 24c.74 0 3.24.27 3.21 4.44-.03 4.17-3.3 4.6-3.82 4.62-.53.02-1.19-.2-1.52-.3-.29-.09-.66-.14-.66.3v2.44a.5.5 0 01-.5.5h-2a.5.5 0 01-.5-.5v-11c0-.28.22-.5.5-.5zm2.5 2.61c.19-.2.74-.61 1.46-.61.9 0 1.54.83 1.54 2.48 0 1.62-.61 2.32-1.8 2.52-.34 0-1.04-.06-1.2-.3v-4.09z" fill="#fff"/><path d="M38 24.46a10 10 0 013.12-.46c2.3-.02 3.85 1 3.87 2.94.02 1.38 0 4.07 0 5.56a.5.5 0 01-.5.5H42.5a.5.5 0 01-.5-.5v-.63l-.13.15c-.3.37-.77.98-2.14.98-1.84 0-2.73-1.55-2.73-2.78 0-1.22.93-2.63 3.28-2.86 1.5-.15 1.72-.24 1.72-.63 0-.4-.25-.76-1.37-.83a8 8 0 00-2.9.65v-1.66c0-.2.1-.37.28-.43zm4.02 4.72c0-.19-.18-.35-.4-.35-.43 0-1.92.08-1.94 1.3-.02.98.81 1.07 1.23 1 .3-.09.93-.33 1.1-.63v-1.32z" fill="#fff"/><rect x="19" y="20" width="33" height="3" rx=".5" fill="#009F4B"/></svg>