<!-- by TradingView --><svg xmlns="http://www.w3.org/2000/svg" width="56" height="56"><path fill="#F0F3FA" d="M0 0h56v56H0z"/><path d="M38.58 11.92l-2.9 8.76c-15.6-.08-14.65 20.7-1.98 21.63.91.06 1.36-.06.15.04-4.6-.02-8.03-1.6-10.47-3.92-3.8-3.6-5.59-9.39-4.85-14.58a14.9 14.9 0 017.6-11.09c3.46-1.93 7.68-2.37 12.45-.84" fill="#7FCC45"/><path d="M15.3 16.53l4.56 2.88c-.67 1.4-1.1 2.89-1.33 4.44-.74 5.2 1.05 10.97 4.85 14.58 2.43 2.3 5.83 3.88 10.4 3.92.84 0 1.47-.13 2.3-.3l1.33-.27a15.62 15.62 0 01-6.32 1.26 17.8 17.8 0 01-13.54-6.92 18.57 18.57 0 01-3.86-9.58c-.33-3.37.28-6.72 1.6-10" fill="#009CD9"/><path d="M15.92 33.65L13 35.39c3.96 7.32 15.06 13.15 26 7.07l-.54-1.1-1.78.57.73-.15a15.62 15.62 0 01-6.32 1.26 17.8 17.8 0 01-13.54-6.92c-.6-.78-1.15-1.6-1.63-2.47" fill="#0578B5"/></svg>