<!-- by TradingView --><svg xmlns="http://www.w3.org/2000/svg" width="56" height="56"><path fill="#0AF" d="M0 0h56v56H0z"/><path d="M50 24.2c-5.9-3.94-13.59-6.32-22-6.32S11.9 20.26 6 24.2c5.86-1.95 12.72-3.16 22-3.16s16.14 1.2 22 3.16zM24.38 26c-.4 0-.6.34-.66.76l-.34 2.48c-.03.24-.04.5-.27.6-.22.1-.5-.06-.73-.26l-3.68-3.31a1.01 1.01 0 00-.68-.27c-.52 0-1.02.34-1.02 1.17v5.17c0 .4.27.66.59.66.35 0 .58-.25.64-.61l.42-2.74c.05-.32.1-.57.4-.66.26-.09.5.07.88.42a1062.3 1062.3 0 013.47 3.3c.23.2.4.29.74.29.3 0 .86-.13.86-1.11v-5.15c0-.48-.28-.74-.62-.74zm-9.67 5.88c-2.92.63-6.26-.04-6.26-2.11 0-1.56 1.45-2.2 2.59-2.29 1.2-.1 2.13.16 2.61.66.3.3.35.86-.35.86h-2.4c-.49.02-.89.15-.89.5 0 .27.33.5.89.5h3.82c.66 0 .98-.37.98-1.13 0-1.2-1.09-2.8-4.29-2.8-2.9 0-5 1.45-5 3.8 0 3.36 4.93 4.38 8.54 3.13.34-.11.65-.36.55-.74-.08-.34-.36-.47-.78-.38zm34.1 0c-2.92.62-6.27-.05-6.27-2.11 0-1.57 1.45-2.2 2.6-2.3 1.2-.09 2.13.16 2.61.66.3.31.35.87-.35.87h-2.42c-.48.01-.88.15-.88.5 0 .27.33.5.88.5h3.82c.66 0 .99-.37.99-1.13 0-1.21-1.1-2.8-4.3-2.8-2.9 0-4.99 1.44-4.99 3.8 0 3.35 4.93 4.37 8.54 3.13.34-.12.65-.36.55-.75-.09-.34-.36-.47-.78-.38zm-11.46-3.22c.06 1.82.24 3.34.28 3.87.07.69.42.88.78.88.34 0 .7-.18.76-.87.05-.59.23-2.4.31-4.18 0-.1-.06-.13-.13-.12l-1.9.3c-.06.02-.1.06-.1.12zm1.06-2.59c-.87 0-1.13.69-1.12 1.1l.03.57c0 .06.05.11.13.1l1.98-.32a.11.11 0 00.1-.1v-.24c.02-.4-.24-1.1-1.12-1.1zm-2.92 2.91l-4 .02c-.98 0-1.02 1 0 1h2.54c.71.04.72.75.48 1.06-.48.63-1.66 1.05-2.88 1.05-1.6 0-3.36-.91-3.36-2.35 0-1.35 1.5-2.84 5.97-2.21.4.05.78-.02.88-.38.1-.39-.15-.63-.66-.77a10.79 10.79 0 00-2.81-.33c-3 0-5.42 1.44-5.42 3.76 0 2.47 2.4 3.68 5.4 3.68 3.34 0 4.97-1.82 4.97-3.4 0-.82-.41-1.13-1.1-1.13z" fill="#fff"/></svg>