<!-- by TradingView --><svg xmlns="http://www.w3.org/2000/svg" width="56" height="56"><path fill="#F0F3FA" d="M0 0h56v56H0z"/><path fill-rule="evenodd" d="M15.08 14h25.84c.56 0 1.08.48 1.08 1.1v25.8c0 .57-.47 1.1-1.08 1.1H15.08A1.1 1.1 0 0114 40.9V15.1c0-.62.47-1.1 1.08-1.1zm.47 1.82c.99-.05 12.83-.48 19.64 6.38 0 0-5.4-4.12-17.62-2.3a17.13 17.13 0 00-2.02-4.08zm3.52 9.73c3.67-1 15.65-3.11 19.31 1.16-2.35-7.58-17.57-5.57-20.2-5.18.38 1.2.66 2.54.9 4.02zm.24 1.97c2.91-.81 19.26-5.03 20.9 2.93-5.16-3.55-17.47.43-20.71 1.63.04-.97 0-1.98-.04-3.08l-.01-.14-.14-1.34zm19.21 10.6c9.54-12.28-12.21-6.76-19.16-3.8-.29 2.5-.94 4.47-1.79 6 2.73-1.34 13.72-6.14 19.03-6.42 2.82-.2 3.99.33 1.92 4.22z" fill="#019EE0"/></svg>