<!-- by TradingView --><svg xmlns="http://www.w3.org/2000/svg" width="56" height="56"><path fill="#F0F3FA" d="M0 0h56v56H0z"/><path d="M10.25 22.96c0-.3.4-.94 2.08-.96.28 0 .86.18.86.96 0 .73-.56.95-.86.94-.67 0-2.02-.17-2.08-.94zm1.33 2.1c-.21-.08-.71-.11-1.04.42-.4.66-1.55 3.56-1.54 5.03.01 1.48.75 2.76 2.58 2.76 1.91 0 6.12-3.22 7.69-4.96l1.47 2.8c-.84.16-2.55.8-2.67 2.16-.12 1.36 1.13 1.72 1.77 1.73.89.02 2.66-.66 2.64-3.5.7-.27 2.49-1.15 4.12-2.57-.23.8 0 2.57 2.06 2.57.56 0 1.79-.27 2.86-1.8.2.6 1.24 1.8 3.75 1.73.68 0 2.58-.28 4.71-1.39 2.66-1.38 4.81-1.94 6.2-1.9.21 0 .84.06 1.65.3.8.24 1.1-.17 1.16-.45.03-.15 0-.6-.52-.88a4.48 4.48 0 00-2.3-.59c-.94 0-2.9.31-5.15 1.63l-.3.17c-2.09 1.22-3.68 2.16-5.93 2.29-.83.06-2.46-.25-2.38-1.98.01-.27.07-.9.13-1.21.07-.4-.08-.66-.35-.67-.2-.02-.44.03-.54.49-.13.6-.75 2.97-2.64 3.01-.48 0-1.08-.12-1-1.08.1-1.22 1.35-3.14 3.9-3.36.17 0 .5-.07.5-.4 0-.35-.33-.4-.5-.38a5.9 5.9 0 00-4.47 2.09c-1.5 1.76-4 3.13-5.06 3.6a11.93 11.93 0 00-.84-1.79 25.8 25.8 0 01-.96-1.81c.25-.23.75-.87.75-1.56 0-.86-.75-1.14-1.17-1.13-.36.01-1.44.04-1.59 1.66-.01.25.03.9.33 1.56-1.42 1.5-4.81 4.46-7.01 4.28-.41.01-1.23-.22-1.2-1.17.04-1.2.7-3.42 1.2-4.6.12-.26.24-.84-.31-1.1zm8.62 1.38c-.17-.39-.4-1.3.15-1.3.3 0 .59.48-.15 1.3zm-.96 6.67c.19-.9 1.32-1.22 1.86-1.26-.08.95-1.08 1.6-1.51 1.62-.35.03-.38-.23-.35-.36z" fill="url(#a5bvnqbwn)"/><defs><linearGradient id="a5bvnqbwn" x1="9" y1="27.96" x2="49" y2="28.07" gradientUnits="userSpaceOnUse"><stop stop-color="#09F"/><stop offset=".89" stop-color="#2D155B"/><stop offset="1" stop-color="#F44D04"/></linearGradient></defs></svg>